<svg width="203" height="36" viewBox="0 0 203 36" fill="none" xmlns="http://www.w3.org/2000/svg">
<g clip-path="url(#clip0_198_7)">
<path d="M8.55389 34.2353H6.9108V1.72607H8.55389V34.2353ZM5.26772 34.2353H3.62466V1.72607H5.26772V34.2353ZM1.98158 34.2353H0.338501V1.72607H1.98158V34.2353ZM11.84 26.108H27.5634V27.7334H11.84V29.3589H27.5634V30.9844H11.84V32.6098H27.5634V34.2353H10.1969V1.72607H27.5634V3.35153H11.84V4.97701H27.5634V6.60244H11.84V8.22791H27.5634V9.85338H11.84V13.8945H26.6505V15.5199H11.84V17.1454H26.6505V18.7708H11.84V20.3963H26.6505V22.0217H11.84V26.108Z" fill="white"/>
<path d="M30.2104 1.72607H31.9905L44.108 32.0454L56.2259 1.72607H57.983L44.9982 34.2353H43.2183L30.2104 1.72607ZM33.7476 1.72607H35.5048L45.2493 26.108L44.3135 28.1849L33.7476 1.72607ZM37.2849 1.72607H39.0648L47.0064 21.6605L46.1391 23.8955L37.2849 1.72607ZM40.8219 1.72607H42.5793L48.7406 17.1454L47.8737 19.4255L40.8219 1.72607ZM66.8144 1.72607H68.5947L55.587 34.2353H53.8296L66.8144 1.72607ZM63.3003 1.72607H65.0573L52.0496 34.2353H50.2926L63.3003 1.72607ZM59.7401 1.72607H61.52L48.5127 34.2353H46.7552L59.7401 1.72607Z" fill="white"/>
<path d="M86.6 18.7708H83.9985C80.8036 18.7708 78.3466 18.1311 76.6273 16.8519C74.9084 15.5575 74.0486 13.7816 74.0486 11.524C74.0486 9.41688 75.0604 7.6635 77.0836 6.26381C79.1072 4.84904 81.9446 4.14168 85.5957 4.14168C88.0299 4.14168 90.2968 4.47277 92.3964 5.135C94.5109 5.79722 96.2684 6.73036 97.668 7.93442L96.39 8.95032C95.1424 7.94194 93.5755 7.15929 91.6889 6.60242C89.8023 6.04555 87.7713 5.76711 85.5957 5.76711C82.3859 5.76711 79.9288 6.30895 78.2249 7.39258C76.536 8.47622 75.6919 9.85336 75.6919 11.524C75.6919 13.33 76.384 14.7222 77.7683 15.7005C79.1682 16.6637 81.2446 17.1453 83.9985 17.1453H86.5087C89.7492 17.1453 92.2291 17.7925 93.9483 19.0869C95.6826 20.3662 96.5499 22.1346 96.5499 24.3922C96.5499 26.4993 95.5381 28.2602 93.5145 29.6749C91.4913 31.0746 88.6539 31.7745 85.0024 31.7745C82.5682 31.7745 80.2938 31.4434 78.1792 30.7811C76.0797 30.1189 74.3301 29.1858 72.9305 27.9817L74.2084 26.9658C75.4561 27.9742 77.023 28.7569 78.9095 29.3137C80.7958 29.8706 82.8268 30.149 85.0024 30.149C88.2126 30.149 90.6621 29.6072 92.3507 28.5236C94.0546 27.4399 94.9066 26.0628 94.9066 24.3922C94.9066 22.5861 94.2066 21.2015 92.807 20.2382C91.4228 19.2599 89.3535 18.7708 86.6 18.7708ZM86.6 22.0217H83.9985C79.769 22.0217 76.5057 21.0735 74.2084 19.1771C71.9112 17.2658 70.7624 14.7147 70.7624 11.524C70.7624 10.0641 71.0896 8.69444 71.7439 7.41517C72.3979 6.13587 73.3337 5.01461 74.5506 4.05136C75.7832 3.07307 77.3501 2.3055 79.2517 1.74863C81.1536 1.17671 83.2682 0.890747 85.5957 0.890747C88.5323 0.890747 91.2783 1.33474 93.8342 2.22272C96.39 3.09565 98.5199 4.32228 100.224 5.90257L98.9002 6.87334C97.3483 5.48868 95.4086 4.42011 93.081 3.66757C90.7531 2.9 88.2583 2.5162 85.5957 2.5162C81.4883 2.5162 78.2627 3.37409 75.9199 5.08985C73.577 6.80561 72.4057 8.95033 72.4057 11.524C72.4057 14.2481 73.4096 16.4079 75.4179 18.0032C77.4261 19.5986 80.2863 20.3963 83.9985 20.3963H86.5087C91.0118 20.3963 93.2637 21.7282 93.2637 24.3922C93.2637 25.5962 92.5712 26.5895 91.1869 27.3722C89.8177 28.1398 87.7563 28.5236 85.0024 28.5236C83.0705 28.5236 81.2753 28.3053 79.617 27.8689C77.9584 27.4173 76.5895 26.7777 75.5092 25.9499L76.81 24.9566C78.7115 26.2509 81.4426 26.8981 85.0024 26.8981C87.2846 26.8981 88.9582 26.6648 90.0232 26.1982C91.0881 25.7317 91.6204 25.1296 91.6204 24.3922C91.6204 23.5343 91.2476 22.9247 90.5023 22.5635C89.7567 22.2023 88.4559 22.0217 86.6 22.0217ZM86.6 15.5199H83.9985C79.556 15.5199 77.3348 14.1879 77.3348 11.524C77.3348 10.3199 78.0194 9.33411 79.3887 8.56654C80.7729 7.78389 82.8422 7.39258 85.5957 7.39258C87.528 7.39258 89.3232 7.61833 90.9815 8.06984C92.6397 8.50633 94.009 9.13844 95.0893 9.96623L93.7885 10.9595C91.8866 9.66521 89.1559 9.01805 85.5957 9.01805C83.3138 9.01805 81.6402 9.25131 80.5753 9.7179C79.5103 10.1845 78.978 10.7865 78.978 11.524C78.978 12.3818 79.3505 12.9914 80.0962 13.3526C80.8414 13.7138 82.1422 13.8944 83.9985 13.8944H86.6C90.8295 13.8944 94.0928 14.8501 96.39 16.7615C98.6872 18.6579 99.8357 21.2015 99.8357 24.3922C99.8357 25.8521 99.5089 27.2217 98.8546 28.501C98.2003 29.7803 97.257 30.9091 96.0247 31.8874C94.8078 32.8506 93.2483 33.6182 91.3468 34.1901C89.4449 34.747 87.3303 35.0254 85.0024 35.0254C82.0662 35.0254 79.3202 34.5889 76.7643 33.716C74.2084 32.828 72.0785 31.5939 70.3746 30.0136L71.6982 29.0428C73.2498 30.4275 75.1895 31.5036 77.5174 32.2712C79.845 33.0237 82.3402 33.3999 85.0024 33.3999C89.1102 33.3999 92.3354 32.542 94.6783 30.8263C97.0211 29.1105 98.1928 26.9658 98.1928 24.3922C98.1928 21.668 97.1888 19.5083 95.1806 17.9129C93.1723 16.3175 90.3122 15.5199 86.6 15.5199Z" fill="white"/>
<path d="M116.198 18.9288H123.159C124.527 18.9288 125.692 18.5225 126.65 17.7097C127.609 16.897 128.088 15.7532 128.088 14.2782C128.088 13.1344 127.586 12.111 126.581 11.2079C125.577 10.3049 124.437 9.85338 123.159 9.85338H111.657V34.2353H110.014V8.22791H123.159C124.908 8.22791 126.437 8.83748 127.745 10.0566C129.069 11.2757 129.731 12.6829 129.731 14.2782C129.731 16.1897 129.092 17.7173 127.814 18.8611C126.536 19.9899 124.984 20.5543 123.159 20.5543H116.198V18.9288ZM116.198 22.1798H123.159C125.41 22.1798 127.342 21.4423 128.955 19.9673C130.568 18.4924 131.374 16.596 131.374 14.2782C131.374 12.2464 130.552 10.4629 128.909 8.92776C127.266 7.37757 125.349 6.60244 123.159 6.60244H108.371V34.2353H106.728V4.97701H123.159C125.805 4.97701 128.11 5.91011 130.073 7.7764C132.036 9.62761 133.017 11.7949 133.017 14.2782C133.017 16.9873 132.043 19.2525 130.096 21.0736C128.164 22.8947 125.851 23.8052 123.159 23.8052H116.198V22.1798ZM116.198 25.4307H123.159C125.212 25.4307 127.114 24.9491 128.864 23.9859C130.628 23.0226 132.036 21.6831 133.085 19.9673C134.135 18.2516 134.66 16.3552 134.66 14.2782C134.66 12.3668 134.135 10.5683 133.085 8.88262C132.051 7.19694 130.644 5.85746 128.864 4.8641C127.099 3.85571 125.197 3.35153 123.159 3.35153H105.084V34.2353H103.442V1.72607H123.159C124.893 1.72607 126.566 2.06471 128.179 2.74199C129.807 3.41926 131.214 4.32982 132.401 5.47367C133.587 6.60244 134.531 7.94196 135.23 9.49215C135.945 11.0273 136.303 12.6227 136.303 14.2782C136.303 16.2198 135.953 18.0033 135.253 19.6287C134.553 21.2542 133.603 22.6087 132.401 23.6924C131.199 24.761 129.799 25.5887 128.202 26.1757C126.62 26.7627 124.938 27.0562 123.159 27.0562H116.198V25.4307ZM114.943 34.2353H113.3V11.4788H123.159C124.056 11.4788 124.824 11.7573 125.463 12.3141C126.118 12.856 126.444 13.5107 126.444 14.2782C126.444 16.295 125.349 17.3034 123.159 17.3034H116.198V15.6779H123.159C124.254 15.6779 124.801 15.2114 124.801 14.2782C124.801 13.9471 124.642 13.6687 124.322 13.4429C124.003 13.2172 123.615 13.1043 123.159 13.1043H114.943V34.2353Z" fill="white"/>
<path d="M152.551 13.3977C151.273 14.662 150.634 16.1896 150.634 17.9806C150.634 19.7717 151.273 21.3068 152.551 22.5861C153.844 23.8504 155.396 24.4825 157.207 24.4825C159.017 24.4825 160.561 23.8504 161.839 22.5861C163.132 21.3068 163.779 19.7717 163.779 17.9806C163.779 16.1896 163.132 14.662 161.839 13.3977C160.561 12.1185 159.017 11.4788 157.207 11.4788C155.396 11.4788 153.844 12.1185 152.551 13.3977ZM151.387 23.7375C149.79 22.1421 148.991 20.2232 148.991 17.9806C148.991 15.7381 149.79 13.8267 151.387 12.2464C153 10.651 154.94 9.85335 157.207 9.85335C159.473 9.85335 161.406 10.651 163.003 12.2464C164.616 13.8267 165.422 15.7381 165.422 17.9806C165.422 20.2232 164.616 22.1421 163.003 23.7375C161.406 25.3178 159.473 26.108 157.207 26.108C154.94 26.108 153 25.3178 151.387 23.7375ZM150.224 11.095C148.307 13.0064 147.348 15.3016 147.348 17.9806C147.348 20.6596 148.307 22.9548 150.224 24.8663C152.156 26.7777 154.483 27.7334 157.207 27.7334C159.93 27.7334 162.25 26.7777 164.167 24.8663C166.099 22.9548 167.065 20.6596 167.065 17.9806C167.065 15.3016 166.099 13.0064 164.167 11.095C162.25 9.18358 159.93 8.22788 157.207 8.22788C154.483 8.22788 152.156 9.18358 150.224 11.095ZM147.234 23.6923C146.215 21.9465 145.705 20.0426 145.705 17.9806C145.705 15.9187 146.215 14.0148 147.234 12.269C148.269 10.5231 149.668 9.14595 151.433 8.13757C153.198 7.11414 155.122 6.60241 157.207 6.60241C159.291 6.60241 161.216 7.11414 162.98 8.13757C164.745 9.14595 166.137 10.5231 167.156 12.269C168.191 14.0148 168.708 15.9187 168.708 17.9806C168.708 20.0426 168.191 21.9465 167.156 23.6923C166.137 25.4382 164.745 26.8228 162.98 27.8463C161.216 28.8546 159.291 29.3589 157.207 29.3589C155.122 29.3589 153.198 28.8546 151.433 27.8463C149.668 26.8228 148.269 25.4382 147.234 23.6923ZM145.089 12.9462C144.404 14.5416 144.062 16.2197 144.062 17.9806C144.062 19.7416 144.404 21.4272 145.089 23.0376C145.789 24.633 146.724 26.0176 147.896 27.1916C149.083 28.3505 150.482 29.2761 152.095 29.9684C153.723 30.6457 155.427 30.9843 157.207 30.9843C158.986 30.9843 160.683 30.6457 162.296 29.9684C163.923 29.2761 165.323 28.3505 166.495 27.1916C167.681 26.0176 168.617 24.633 169.301 23.0376C170.001 21.4272 170.351 19.7416 170.351 17.9806C170.351 16.2197 170.001 14.5416 169.301 12.9462C168.617 11.3358 167.681 9.95115 166.495 8.79227C165.323 7.61832 163.923 6.69273 162.296 6.01544C160.683 5.32314 158.986 4.97698 157.207 4.97698C155.427 4.97698 153.723 5.32314 152.095 6.01544C150.482 6.69273 149.083 7.61832 147.896 8.79227C146.724 9.95115 145.789 11.3358 145.089 12.9462ZM143.583 23.6698C142.807 21.8637 142.419 19.9673 142.419 17.9806C142.419 15.994 142.807 14.0976 143.583 12.2915C144.374 10.4855 145.424 8.93525 146.732 7.64091C148.056 6.33153 149.63 5.29304 151.456 4.52546C153.281 3.74281 155.198 3.3515 157.207 3.3515C159.215 3.3515 161.132 3.74281 162.957 4.52546C164.783 5.29304 166.35 6.33153 167.658 7.64091C168.982 8.93525 170.032 10.4855 170.808 12.2915C171.599 14.0976 171.994 15.994 171.994 17.9806C171.994 19.9673 171.599 21.8637 170.808 23.6698C170.032 25.4758 168.982 27.0335 167.658 28.343C166.35 29.6373 164.783 30.6758 162.957 31.4584C161.132 32.226 159.215 32.6098 157.207 32.6098C155.198 32.6098 153.281 32.226 151.456 31.4584C149.63 30.6758 148.056 29.6373 146.732 28.343C145.424 27.0335 144.374 25.4758 143.583 23.6698ZM142.076 11.682C141.21 13.6837 140.776 15.7833 140.776 17.9806C140.776 20.178 141.21 22.2851 142.076 24.3019C142.944 26.3036 144.108 28.0344 145.568 29.4943C147.044 30.9392 148.793 32.0905 150.817 32.9484C152.855 33.8063 154.985 34.2352 157.207 34.2352C159.428 34.2352 161.55 33.8063 163.573 32.9484C165.612 32.0905 167.362 30.9392 168.822 29.4943C170.298 28.0344 171.469 26.3036 172.337 24.3019C173.204 22.2851 173.637 20.178 173.637 17.9806C173.637 15.7833 173.204 13.6837 172.337 11.682C171.469 9.6652 170.298 7.93441 168.822 6.48954C167.362 5.02964 165.612 3.87075 163.573 3.01287C161.55 2.15499 159.428 1.72604 157.207 1.72604C154.985 1.72604 152.855 2.15499 150.817 3.01287C148.793 3.87075 147.044 5.02964 145.568 6.48954C144.108 7.93441 142.944 9.6652 142.076 11.682ZM140.571 24.934C139.612 22.7216 139.133 20.4038 139.133 17.9806C139.133 15.5575 139.612 13.2472 140.571 11.0499C141.529 8.83745 142.815 6.93354 144.427 5.33818C146.04 3.74281 147.957 2.47105 150.178 1.52286C152.414 0.574679 154.757 0.100586 157.207 0.100586C159.656 0.100586 161.991 0.574679 164.212 1.52286C166.449 2.47105 168.373 3.74281 169.986 5.33818C171.599 6.93354 172.884 8.83745 173.843 11.0499C174.801 13.2472 175.28 15.5575 175.28 17.9806C175.28 20.4038 174.801 22.7216 173.843 24.934C172.884 27.1314 171.599 29.0277 169.986 30.6231C168.373 32.2185 166.449 33.4902 164.212 34.4384C161.991 35.3865 159.656 35.8605 157.207 35.8605C154.757 35.8605 152.414 35.3865 150.178 34.4384C147.957 33.4902 146.04 32.2185 144.427 30.6231C142.815 29.0277 141.529 27.1314 140.571 24.934Z" fill="white"/>
<path d="M184.797 10.7338H186.44V34.2353H184.797V10.7338ZM178.224 3.35153V1.72607H202.871V3.35153H178.224ZM178.224 6.60244V4.97701H202.871V6.60244H178.224ZM178.224 9.85338V8.22791H202.871V9.85338H178.224ZM194.655 10.7338H196.298V34.2353H194.655V10.7338ZM191.369 10.7338H193.012V34.2353H191.369V10.7338ZM188.083 10.7338H189.726V34.2353H188.083V10.7338Z" fill="white"/>
<path d="M43.1687 34.2353L30.3251 1.58826H68.6774L55.6555 34.2353H43.1687Z" fill="white"/>
<path fill-rule="evenodd" clip-rule="evenodd" d="M30.0643 1.41174H68.9398L55.7769 34.4117H43.0467L30.0643 1.41174ZM30.586 1.76468L43.2908 34.0588H55.5343L68.4153 1.76468H30.586Z" fill="white"/>
<path d="M51.9074 5.32015V10.5167H47.5292V5.32015C47.5295 4.90552 47.3058 4.52236 46.9426 4.31494C46.5794 4.10759 46.1324 4.10759 45.7692 4.31494C45.406 4.52233 45.1827 4.90541 45.1827 5.32012V10.5167L42.518 10.5166C42.1545 10.5167 41.8184 10.7084 41.6368 11.0198C41.4552 11.3312 41.4552 11.7147 41.6368 12.0261C41.8188 12.3375 42.1545 12.5292 42.5177 12.5292H43.5651L43.5655 18.4343C43.5655 19.0257 43.7778 19.5978 44.1645 20.0487L45.5787 21.6961C46.0575 22.2542 46.7603 22.576 47.5006 22.576H51.9388C52.6787 22.576 53.3815 22.2542 53.8607 21.696L55.2721 20.0512C55.6588 19.6005 55.8714 19.0285 55.8714 18.4371V12.5292H56.9189C57.1886 12.5294 57.4473 12.4232 57.6378 12.2345C57.8286 12.0457 57.936 11.7899 57.936 11.523C57.936 11.256 57.8286 11 57.6381 10.8113C57.4473 10.6226 57.1886 10.5166 56.9185 10.5166H54.2538V5.32015C54.2535 4.90576 54.0298 4.52307 53.667 4.31593C53.3041 4.10893 52.8571 4.10889 52.4943 4.31593C52.1314 4.52303 51.9078 4.90576 51.9074 5.32015Z" fill="#162582"/>
<path d="M47.2338 24.1134C47.2338 24.6992 47.7546 25.2079 48.5221 25.4676V30.3871C48.5221 30.554 49.0576 31.0839 49.7186 31.084C50.3794 31.084 50.9149 30.5541 50.9149 30.3871V25.4676C51.6816 25.2078 52.2024 24.6993 52.2024 24.1134V23.5604H47.2338V24.1134Z" fill="#162582"/>
<path d="M175.529 17.8235C175.529 27.6672 167.383 35.6471 157.334 35.6471C147.285 35.6471 139.139 27.6672 139.139 17.8235C139.139 7.97986 147.285 0 157.334 0C167.383 0 175.529 7.97986 175.529 17.8235Z" fill="white"/>
<path fill-rule="evenodd" clip-rule="evenodd" d="M158.242 19.329C153.853 27.1703 151.626 31.0589 151.626 31.0589C151.626 31.0589 156.735 26.4575 167.02 17.1258H159.028C159.028 17.1258 161.386 14.1446 166.234 8.11768H155.687C153.525 15.635 152.477 19.329 152.477 19.329H158.242H158.242Z" fill="#162582"/>
</g>
<defs>
<clipPath id="clip0_198_7">
<rect width="203" height="36" fill="white"/>
</clipPath>
</defs>
</svg>
